<svg width="16" height="16" viewBox="0 0 16 16" fill="none" xmlns="http://www.w3.org/2000/svg">
<path fill-rule="evenodd" clip-rule="evenodd" d="M1.33203 8.00558C1.33203 4.50676 4.3168 1.67041 7.9987 1.67041C9.76681 1.67041 11.4625 2.33786 12.7127 3.52594C13.963 4.71402 14.6654 6.32539 14.6654 8.00558C14.6654 11.5044 11.6806 14.3408 7.9987 14.3408C4.3168 14.3408 1.33203 11.5044 1.33203 8.00558ZM7.1387 10.3559L11.1387 6.55483C11.4001 6.30641 11.4001 5.90365 11.1387 5.65524C10.8773 5.40682 10.4534 5.40682 10.192 5.65524L6.66536 9.01288L5.80536 8.18931C5.63626 8.02861 5.38978 7.96585 5.15878 8.02467C4.92778 8.08349 4.74734 8.25495 4.68545 8.47447C4.62355 8.69398 4.68959 8.9282 4.8587 9.0889L6.19203 10.3559C6.31721 10.4759 6.48761 10.5433 6.66536 10.5433C6.84312 10.5433 7.01352 10.4759 7.1387 10.3559Z" fill="#379835"/>
</svg>
