<svg width="16" height="16" viewBox="0 0 16 16" fill="none" xmlns="http://www.w3.org/2000/svg">
<path d="M9.33366 2.40669L6.66699 1.52002V13.5934L9.33366 14.48V2.40669Z" fill="#7B7B7B"/>
<path d="M14.1137 1.84C13.7657 1.59092 13.3194 1.52397 12.9137 1.66L10.667 2.40667V14.48L13.7537 13.4533C14.2994 13.2722 14.6675 12.7617 14.667 12.1867V2.92667C14.6687 2.49638 14.4626 2.09172 14.1137 1.84Z" fill="#7B7B7B"/>
<path d="M5.33351 1.52002L2.24684 2.54669C1.70112 2.72781 1.33298 3.23836 1.33351 3.81335V13.0734C1.3318 13.5036 1.53786 13.9083 1.88684 14.16C2.11612 14.3188 2.38795 14.4048 2.66684 14.4067C2.80957 14.4079 2.95151 14.3854 3.08684 14.34L5.33351 13.5934V1.52002Z" fill="#7B7B7B"/>
</svg>
