<svg width="22" height="22" viewBox="0 0 22 22" fill="none" xmlns="http://www.w3.org/2000/svg">
<path fill-rule="evenodd" clip-rule="evenodd" d="M20.1654 11.0002C20.1654 16.0628 16.0613 20.1668 10.9987 20.1668C5.93609 20.1668 1.83203 16.0628 1.83203 11.0002C1.83203 5.93755 5.93609 1.8335 10.9987 1.8335C13.4298 1.8335 15.7614 2.79927 17.4805 4.51835C19.1996 6.23743 20.1654 8.56901 20.1654 11.0002ZM16.4987 11.0002C16.4987 11.5064 16.0883 11.9168 15.582 11.9168H6.41536C5.9091 11.9168 5.4987 11.5064 5.4987 11.0002C5.4987 10.4939 5.9091 10.0835 6.41536 10.0835H15.582C16.0883 10.0835 16.4987 10.4939 16.4987 11.0002ZM10.9987 3.66683C15.0488 3.66683 18.332 6.95007 18.332 11.0002C18.332 12.9451 17.5594 14.8103 16.1841 16.1856C14.8089 17.5609 12.9436 18.3335 10.9987 18.3335C6.94861 18.3335 3.66536 15.0503 3.66536 11.0002C3.66536 6.95007 6.94861 3.66683 10.9987 3.66683Z" fill="white"/>
</svg>
