<svg width="16" height="16" viewBox="0 0 16 16" fill="none" xmlns="http://www.w3.org/2000/svg">
<path fill-rule="evenodd" clip-rule="evenodd" d="M7.9987 14.6668C4.3168 14.6668 1.33203 11.6821 1.33203 8.00016C1.33203 4.31826 4.3168 1.3335 7.9987 1.3335C9.76681 1.3335 11.4625 2.03588 12.7127 3.28612C13.963 4.53636 14.6654 6.23205 14.6654 8.00016C14.6654 11.6821 11.6806 14.6668 7.9987 14.6668ZM11.9987 8.00016C11.9987 8.36835 11.7002 8.66683 11.332 8.66683H4.66536C4.29717 8.66683 3.9987 8.36835 3.9987 8.00016C3.9987 7.63197 4.29717 7.3335 4.66536 7.3335H11.332C11.7002 7.3335 11.9987 7.63197 11.9987 8.00016ZM7.9987 2.66683C10.9442 2.66683 13.332 5.05464 13.332 8.00016C13.332 9.41465 12.7701 10.7712 11.7699 11.7714C10.7697 12.7716 9.41319 13.3335 7.9987 13.3335C5.05318 13.3335 2.66536 10.9457 2.66536 8.00016C2.66536 5.05464 5.05318 2.66683 7.9987 2.66683Z" fill="#7F7F7F"/>
</svg>
