<svg width="64" height="64" viewBox="0 0 64 64" fill="none" xmlns="http://www.w3.org/2000/svg">
<path fill-rule="evenodd" clip-rule="evenodd" d="M50.6666 5.33337H13.3333C8.91497 5.33337 5.33325 8.9151 5.33325 13.3334V50.6667C5.33325 55.085 8.91497 58.6667 13.3333 58.6667H50.6666C55.0849 58.6667 58.6666 55.085 58.6666 50.6667V13.3334C58.6666 8.9151 55.0849 5.33337 50.6666 5.33337ZM21.1199 46.3467C20.993 46.674 20.8027 46.9731 20.5599 47.2267C20.3007 47.4623 20.0031 47.6517 19.6799 47.7867C19.3593 47.9234 19.0151 47.9958 18.6666 48C17.9605 47.9902 17.2843 47.714 16.7733 47.2267C16.5305 46.9731 16.3402 46.674 16.2133 46.3467C15.928 45.7013 15.928 44.9655 16.2133 44.32C16.3402 43.9927 16.5305 43.6936 16.7733 43.44C17.5401 42.6834 18.6869 42.4624 19.6799 42.88C20.0031 43.0151 20.3007 43.2045 20.5599 43.44C20.8027 43.6936 20.993 43.9927 21.1199 44.32C21.4052 44.9655 21.4052 45.7013 21.1199 46.3467ZM21.1733 33.0134C21.2501 32.8622 21.3041 32.7004 21.3333 32.5334C21.3463 32.3558 21.3463 32.1776 21.3333 32C21.3234 31.294 21.0472 30.6177 20.5599 30.1067C20.3007 29.8712 20.0031 29.6818 19.6799 29.5467C18.6869 29.1291 17.5401 29.3501 16.7733 30.1067C16.5263 30.357 16.3354 30.657 16.2133 30.9867C16.0766 31.3073 16.0041 31.6516 15.9999 32C15.9958 32.7088 16.2741 33.3901 16.7733 33.8934C17.2843 34.3807 17.9605 34.6569 18.6666 34.6667C19.033 34.6696 19.3961 34.597 19.7333 34.4534C20.0564 34.3183 20.354 34.1289 20.6133 33.8934L20.9333 33.4934C21.0342 33.3447 21.1149 33.1833 21.1733 33.0134ZM20.5599 20.56C20.3007 20.7956 20.0031 20.985 19.6799 21.12C19.3634 21.2693 19.0164 21.3424 18.6666 21.3334C17.9605 21.3236 17.2843 21.0473 16.7733 20.56C16.2741 20.0568 15.9958 19.3755 15.9999 18.6667C16.0041 18.3182 16.0766 17.974 16.2133 17.6534C16.3483 17.3302 16.5377 17.0326 16.7733 16.7734C17.5401 16.0167 18.6869 15.7958 19.6799 16.2134C20.0031 16.3484 20.3007 16.5378 20.5599 16.7734C20.7955 17.0326 20.9849 17.3302 21.1199 17.6534C21.2566 17.974 21.329 18.3182 21.3333 18.6667C21.3234 19.3728 21.0472 20.049 20.5599 20.56ZM29.3333 48H45.3333C46.806 48 47.9999 46.8061 47.9999 45.3334C47.9999 43.8606 46.806 42.6667 45.3333 42.6667H29.3333C27.8605 42.6667 26.6666 43.8606 26.6666 45.3334C26.6666 46.8061 27.8605 48 29.3333 48ZM45.3333 34.6667H29.3333C27.8605 34.6667 26.6666 33.4728 26.6666 32C26.6666 30.5273 27.8605 29.3334 29.3333 29.3334H45.3333C46.806 29.3334 47.9999 30.5273 47.9999 32C47.9999 33.4728 46.806 34.6667 45.3333 34.6667ZM29.3333 21.3334H45.3333C46.806 21.3334 47.9999 20.1395 47.9999 18.6667C47.9999 17.1939 46.806 16 45.3333 16H29.3333C27.8605 16 26.6666 17.1939 26.6666 18.6667C26.6666 20.1395 27.8605 21.3334 29.3333 21.3334Z" fill="white"/>
</svg>
