<svg width="58" height="58" viewBox="0 0 58 58" fill="none" xmlns="http://www.w3.org/2000/svg">
<g filter="url(#filter0_d_909_5038)">
<circle cx="29" cy="25" r="25" fill="#812948"/>
</g>
<path d="M42.9578 27.4418L40.0499 25.4952L31.9517 30.9671C31.05 31.5722 29.9888 31.895 28.9031 31.895C27.8172 31.895 26.756 31.5722 25.8546 30.9671L17.6783 25.4952L14.6764 27.4418C14.2542 27.7339 14.0022 28.2144 14.0022 28.7278C14.0022 29.2411 14.2542 29.7216 14.6764 30.0138L27.0584 38.4637C27.5755 38.8133 28.1855 39 28.8095 39C29.4335 39 30.0434 38.8133 30.5607 38.4637L42.9578 30.0138C43.3801 29.7217 43.632 29.2411 43.632 28.7278C43.632 28.2144 43.3801 27.7339 42.9578 27.4418Z" fill="white"/>
<path d="M14.6838 20.6183L27.1908 28.99C27.7056 29.3345 28.311 29.5184 28.9301 29.5184C29.5495 29.5184 30.1547 29.3345 30.6694 28.99L43.0907 20.6183C43.5161 20.3269 43.7705 19.8442 43.7705 19.3284C43.7705 18.8127 43.5161 18.33 43.0907 18.0386L30.6462 9.5416C30.1276 9.18879 29.5148 9 28.8873 9C28.2598 9 27.6471 9.18879 27.1285 9.5416L14.676 18.0386C14.2513 18.3314 13.9983 18.8147 14 19.3305C14.0014 19.8463 14.2574 20.3279 14.6838 20.6183Z" fill="white"/>
<defs>
<filter id="filter0_d_909_5038" x="0" y="0" width="58" height="58" filterUnits="userSpaceOnUse" color-interpolation-filters="sRGB">
<feFlood flood-opacity="0" result="BackgroundImageFix"/>
<feColorMatrix in="SourceAlpha" type="matrix" values="0 0 0 0 0 0 0 0 0 0 0 0 0 0 0 0 0 0 127 0" result="hardAlpha"/>
<feOffset dy="4"/>
<feGaussianBlur stdDeviation="2"/>
<feComposite in2="hardAlpha" operator="out"/>
<feColorMatrix type="matrix" values="0 0 0 0 0 0 0 0 0 0 0 0 0 0 0 0 0 0 0.25 0"/>
<feBlend mode="normal" in2="BackgroundImageFix" result="effect1_dropShadow_909_5038"/>
<feBlend mode="normal" in="SourceGraphic" in2="effect1_dropShadow_909_5038" result="shape"/>
</filter>
</defs>
</svg>
