<?xml version="1.0" encoding="UTF-8"?>
<svg id="_圖層_2" data-name="圖層 2" xmlns="http://www.w3.org/2000/svg" xmlns:xlink="http://www.w3.org/1999/xlink" viewBox="0 0 72 72">
  <defs>
    <style>
      .cls-1 {
        fill: none;
      }

      .cls-2 {
        clip-path: url(#clippath);
      }

      .cls-3 {
        fill: #5c83c2;
      }

      .cls-4 {
        clip-path: url(#clippath-1);
      }

      .cls-5 {
        clip-path: url(#clippath-4);
      }

      .cls-6 {
        clip-path: url(#clippath-3);
      }

      .cls-7 {
        clip-path: url(#clippath-2);
      }

      .cls-8 {
        clip-path: url(#clippath-7);
      }

      .cls-9 {
        clip-path: url(#clippath-8);
      }

      .cls-10 {
        clip-path: url(#clippath-6);
      }

      .cls-11 {
        clip-path: url(#clippath-5);
      }

      .cls-12 {
        clip-path: url(#clippath-9);
      }

      .cls-13 {
        clip-path: url(#clippath-20);
      }

      .cls-14 {
        clip-path: url(#clippath-21);
      }

      .cls-15 {
        clip-path: url(#clippath-24);
      }

      .cls-16 {
        clip-path: url(#clippath-23);
      }

      .cls-17 {
        clip-path: url(#clippath-22);
      }

      .cls-18 {
        clip-path: url(#clippath-25);
      }

      .cls-19 {
        clip-path: url(#clippath-27);
      }

      .cls-20 {
        clip-path: url(#clippath-28);
      }

      .cls-21 {
        clip-path: url(#clippath-26);
      }

      .cls-22 {
        clip-path: url(#clippath-29);
      }

      .cls-23 {
        clip-path: url(#clippath-14);
      }

      .cls-24 {
        clip-path: url(#clippath-13);
      }

      .cls-25 {
        clip-path: url(#clippath-12);
      }

      .cls-26 {
        clip-path: url(#clippath-10);
      }

      .cls-27 {
        clip-path: url(#clippath-15);
      }

      .cls-28 {
        clip-path: url(#clippath-17);
      }

      .cls-29 {
        clip-path: url(#clippath-16);
      }

      .cls-30 {
        clip-path: url(#clippath-19);
      }

      .cls-31 {
        clip-path: url(#clippath-11);
      }

      .cls-32 {
        clip-path: url(#clippath-18);
      }

      .cls-33 {
        fill: url(#blue_-_10_lpi_20_2);
      }
    </style>
    <clipPath id="clippath">
      <rect class="cls-3" x="71.75" y="67.68" width="72.5" height="1.44"/>
    </clipPath>
    <clipPath id="clippath-1">
      <rect class="cls-3" x="71.75" y="53.28" width="72.5" height="1.44"/>
    </clipPath>
    <clipPath id="clippath-2">
      <rect class="cls-3" x="71.75" y="38.88" width="72.5" height="1.44"/>
    </clipPath>
    <clipPath id="clippath-3">
      <rect class="cls-3" x="71.75" y="24.48" width="72.5" height="1.44"/>
    </clipPath>
    <clipPath id="clippath-4">
      <rect class="cls-3" x="71.75" y="10.08" width="72.5" height="1.44"/>
    </clipPath>
    <clipPath id="clippath-5">
      <rect class="cls-3" x="71.75" y="60.48" width="72.5" height="1.44"/>
    </clipPath>
    <clipPath id="clippath-6">
      <rect class="cls-3" x="71.75" y="46.08" width="72.5" height="1.44"/>
    </clipPath>
    <clipPath id="clippath-7">
      <rect class="cls-3" x="71.75" y="31.68" width="72.5" height="1.44"/>
    </clipPath>
    <clipPath id="clippath-8">
      <rect class="cls-3" x="71.75" y="17.28" width="72.5" height="1.44"/>
    </clipPath>
    <clipPath id="clippath-9">
      <rect class="cls-3" x="71.75" y="2.88" width="72.5" height="1.44"/>
    </clipPath>
    <clipPath id="clippath-10">
      <rect class="cls-3" x="-.25" y="67.68" width="72.5" height="1.44"/>
    </clipPath>
    <clipPath id="clippath-11">
      <rect class="cls-3" x="-.25" y="53.28" width="72.5" height="1.44"/>
    </clipPath>
    <clipPath id="clippath-12">
      <rect class="cls-3" x="-.25" y="38.88" width="72.5" height="1.44"/>
    </clipPath>
    <clipPath id="clippath-13">
      <rect class="cls-3" x="-.25" y="24.48" width="72.5" height="1.44"/>
    </clipPath>
    <clipPath id="clippath-14">
      <rect class="cls-3" x="-.25" y="10.08" width="72.5" height="1.44"/>
    </clipPath>
    <clipPath id="clippath-15">
      <rect class="cls-3" x="-.25" y="60.48" width="72.5" height="1.44"/>
    </clipPath>
    <clipPath id="clippath-16">
      <rect class="cls-3" x="-.25" y="46.08" width="72.5" height="1.44"/>
    </clipPath>
    <clipPath id="clippath-17">
      <rect class="cls-3" x="-.25" y="31.68" width="72.5" height="1.44"/>
    </clipPath>
    <clipPath id="clippath-18">
      <rect class="cls-3" x="-.25" y="17.28" width="72.5" height="1.44"/>
    </clipPath>
    <clipPath id="clippath-19">
      <rect class="cls-3" x="-.25" y="2.88" width="72.5" height="1.44"/>
    </clipPath>
    <clipPath id="clippath-20">
      <rect class="cls-3" x="-72.25" y="67.68" width="72.5" height="1.44"/>
    </clipPath>
    <clipPath id="clippath-21">
      <rect class="cls-3" x="-72.25" y="53.28" width="72.5" height="1.44"/>
    </clipPath>
    <clipPath id="clippath-22">
      <rect class="cls-3" x="-72.25" y="38.88" width="72.5" height="1.44"/>
    </clipPath>
    <clipPath id="clippath-23">
      <rect class="cls-3" x="-72.25" y="24.48" width="72.5" height="1.44"/>
    </clipPath>
    <clipPath id="clippath-24">
      <rect class="cls-3" x="-72.25" y="10.08" width="72.5" height="1.44"/>
    </clipPath>
    <clipPath id="clippath-25">
      <rect class="cls-3" x="-72.25" y="60.48" width="72.5" height="1.44"/>
    </clipPath>
    <clipPath id="clippath-26">
      <rect class="cls-3" x="-72.25" y="46.08" width="72.5" height="1.44"/>
    </clipPath>
    <clipPath id="clippath-27">
      <rect class="cls-3" x="-72.25" y="31.68" width="72.5" height="1.44"/>
    </clipPath>
    <clipPath id="clippath-28">
      <rect class="cls-3" x="-72.25" y="17.28" width="72.5" height="1.44"/>
    </clipPath>
    <clipPath id="clippath-29">
      <rect class="cls-3" x="-72.25" y="2.88" width="72.5" height="1.44"/>
    </clipPath>
    <pattern id="blue_-_10_lpi_20_2" data-name="blue - 10 lpi 20% 2" x="0" y="0" width="72" height="72" patternTransform="translate(-5302.88 -8278.03) rotate(-45) scale(.25)" patternUnits="userSpaceOnUse" viewBox="0 0 72 72">
      <g>
        <rect class="cls-1" width="72" height="72"/>
        <g>
          <g>
            <rect class="cls-3" x="71.75" y="67.68" width="72.5" height="1.44"/>
            <g class="cls-2">
              <g>
                <rect class="cls-3" x="37" y="23" width="72" height="72"/>
                <rect class="cls-3" x="37" y="23" width="72" height="72"/>
              </g>
            </g>
          </g>
          <g>
            <rect class="cls-3" x="71.75" y="53.28" width="72.5" height="1.44"/>
            <g class="cls-4">
              <g>
                <rect class="cls-3" x="37" y="23" width="72" height="72"/>
                <rect class="cls-3" x="37" y="23" width="72" height="72"/>
              </g>
            </g>
          </g>
          <g>
            <rect class="cls-3" x="71.75" y="38.88" width="72.5" height="1.44"/>
            <g class="cls-7">
              <g>
                <rect class="cls-3" x="37" y="23" width="72" height="72"/>
                <rect class="cls-3" x="37" y="23" width="72" height="72"/>
              </g>
            </g>
          </g>
          <g>
            <rect class="cls-3" x="71.75" y="24.48" width="72.5" height="1.44"/>
            <g class="cls-6">
              <g>
                <rect class="cls-3" x="37" y="23" width="72" height="72"/>
                <rect class="cls-3" x="37" y="23" width="72" height="72"/>
              </g>
            </g>
          </g>
          <g>
            <rect class="cls-3" x="71.75" y="10.08" width="72.5" height="1.44"/>
            <g class="cls-5">
              <g>
                <rect class="cls-3" x="37" y="-49" width="72" height="72"/>
                <rect class="cls-3" x="37" y="-49" width="72" height="72"/>
              </g>
            </g>
          </g>
          <g>
            <rect class="cls-3" x="71.75" y="60.48" width="72.5" height="1.44"/>
            <g class="cls-11">
              <g>
                <rect class="cls-3" x="37" y="23" width="72" height="72"/>
                <rect class="cls-3" x="37" y="23" width="72" height="72"/>
              </g>
            </g>
          </g>
          <g>
            <rect class="cls-3" x="71.75" y="46.08" width="72.5" height="1.44"/>
            <g class="cls-10">
              <g>
                <rect class="cls-3" x="37" y="23" width="72" height="72"/>
                <rect class="cls-3" x="37" y="23" width="72" height="72"/>
              </g>
            </g>
          </g>
          <g>
            <rect class="cls-3" x="71.75" y="31.68" width="72.5" height="1.44"/>
            <g class="cls-8">
              <g>
                <rect class="cls-3" x="37" y="23" width="72" height="72"/>
                <rect class="cls-3" x="37" y="23" width="72" height="72"/>
              </g>
            </g>
          </g>
          <g>
            <rect class="cls-3" x="71.75" y="17.28" width="72.5" height="1.44"/>
            <g class="cls-9">
              <g>
                <rect class="cls-3" x="37" y="-49" width="72" height="72"/>
                <rect class="cls-3" x="37" y="-49" width="72" height="72"/>
              </g>
            </g>
          </g>
          <g>
            <rect class="cls-3" x="71.75" y="2.88" width="72.5" height="1.44"/>
            <g class="cls-12">
              <g>
                <rect class="cls-3" x="37" y="-49" width="72" height="72"/>
                <rect class="cls-3" x="37" y="-49" width="72" height="72"/>
              </g>
            </g>
          </g>
        </g>
        <g>
          <g>
            <rect class="cls-3" x="-.25" y="67.68" width="72.5" height="1.44"/>
            <g class="cls-26">
              <rect class="cls-3" x="37" y="23" width="72" height="72"/>
              <g>
                <rect class="cls-3" x="-35" y="23" width="72" height="72"/>
                <rect class="cls-3" x="-35" y="23" width="72" height="72"/>
              </g>
            </g>
          </g>
          <g>
            <rect class="cls-3" x="-.25" y="53.28" width="72.5" height="1.44"/>
            <g class="cls-31">
              <g>
                <rect class="cls-3" x="37" y="23" width="72" height="72"/>
                <rect class="cls-3" x="37" y="23" width="72" height="72"/>
              </g>
              <g>
                <rect class="cls-3" x="-35" y="23" width="72" height="72"/>
                <rect class="cls-3" x="-35" y="23" width="72" height="72"/>
              </g>
            </g>
          </g>
          <g>
            <rect class="cls-3" x="-.25" y="38.88" width="72.5" height="1.44"/>
            <g class="cls-25">
              <g>
                <rect class="cls-3" x="37" y="23" width="72" height="72"/>
                <rect class="cls-3" x="37" y="23" width="72" height="72"/>
              </g>
              <g>
                <rect class="cls-3" x="-35" y="23" width="72" height="72"/>
                <rect class="cls-3" x="-35" y="23" width="72" height="72"/>
              </g>
            </g>
          </g>
          <g>
            <rect class="cls-3" x="-.25" y="24.48" width="72.5" height="1.44"/>
            <g class="cls-24">
              <g>
                <rect class="cls-3" x="37" y="23" width="72" height="72"/>
                <rect class="cls-3" x="37" y="23" width="72" height="72"/>
              </g>
              <g>
                <rect class="cls-3" x="-35" y="23" width="72" height="72"/>
                <rect class="cls-3" x="-35" y="23" width="72" height="72"/>
              </g>
            </g>
          </g>
          <g>
            <rect class="cls-3" x="-.25" y="10.08" width="72.5" height="1.44"/>
            <g class="cls-23">
              <g>
                <rect class="cls-3" x="37" y="-49" width="72" height="72"/>
                <rect class="cls-3" x="37" y="-49" width="72" height="72"/>
              </g>
              <g>
                <rect class="cls-3" x="-35" y="-49" width="72" height="72"/>
                <rect class="cls-3" x="-35" y="-49" width="72" height="72"/>
              </g>
            </g>
          </g>
          <g>
            <rect class="cls-3" x="-.25" y="60.48" width="72.5" height="1.44"/>
            <g class="cls-27">
              <g>
                <rect class="cls-3" x="37" y="23" width="72" height="72"/>
                <rect class="cls-3" x="37" y="23" width="72" height="72"/>
              </g>
              <g>
                <rect class="cls-3" x="-35" y="23" width="72" height="72"/>
                <rect class="cls-3" x="-35" y="23" width="72" height="72"/>
              </g>
            </g>
          </g>
          <g>
            <rect class="cls-3" x="-.25" y="46.08" width="72.5" height="1.44"/>
            <g class="cls-29">
              <g>
                <rect class="cls-3" x="37" y="23" width="72" height="72"/>
                <rect class="cls-3" x="37" y="23" width="72" height="72"/>
              </g>
              <g>
                <rect class="cls-3" x="-35" y="23" width="72" height="72"/>
                <rect class="cls-3" x="-35" y="23" width="72" height="72"/>
              </g>
            </g>
          </g>
          <g>
            <rect class="cls-3" x="-.25" y="31.68" width="72.5" height="1.44"/>
            <g class="cls-28">
              <g>
                <rect class="cls-3" x="37" y="23" width="72" height="72"/>
                <rect class="cls-3" x="37" y="23" width="72" height="72"/>
              </g>
              <g>
                <rect class="cls-3" x="-35" y="23" width="72" height="72"/>
                <rect class="cls-3" x="-35" y="23" width="72" height="72"/>
              </g>
            </g>
          </g>
          <g>
            <rect class="cls-3" x="-.25" y="17.28" width="72.5" height="1.44"/>
            <g class="cls-32">
              <g>
                <rect class="cls-3" x="37" y="-49" width="72" height="72"/>
                <rect class="cls-3" x="37" y="-49" width="72" height="72"/>
              </g>
              <g>
                <rect class="cls-3" x="-35" y="-49" width="72" height="72"/>
                <rect class="cls-3" x="-35" y="-49" width="72" height="72"/>
              </g>
            </g>
          </g>
          <g>
            <rect class="cls-3" x="-.25" y="2.88" width="72.5" height="1.44"/>
            <g class="cls-30">
              <g>
                <rect class="cls-3" x="37" y="-49" width="72" height="72"/>
                <rect class="cls-3" x="37" y="-49" width="72" height="72"/>
              </g>
              <g>
                <rect class="cls-3" x="-35" y="-49" width="72" height="72"/>
                <rect class="cls-3" x="-35" y="-49" width="72" height="72"/>
              </g>
            </g>
          </g>
        </g>
        <g>
          <g>
            <rect class="cls-3" x="-72.25" y="67.68" width="72.5" height="1.44"/>
            <g class="cls-13">
              <rect class="cls-3" x="-35" y="23" width="72" height="72"/>
            </g>
          </g>
          <g>
            <rect class="cls-3" x="-72.25" y="53.28" width="72.5" height="1.44"/>
            <g class="cls-14">
              <g>
                <rect class="cls-3" x="-35" y="23" width="72" height="72"/>
                <rect class="cls-3" x="-35" y="23" width="72" height="72"/>
              </g>
            </g>
          </g>
          <g>
            <rect class="cls-3" x="-72.25" y="38.88" width="72.5" height="1.44"/>
            <g class="cls-17">
              <g>
                <rect class="cls-3" x="-35" y="23" width="72" height="72"/>
                <rect class="cls-3" x="-35" y="23" width="72" height="72"/>
              </g>
            </g>
          </g>
          <g>
            <rect class="cls-3" x="-72.25" y="24.48" width="72.5" height="1.44"/>
            <g class="cls-16">
              <g>
                <rect class="cls-3" x="-35" y="23" width="72" height="72"/>
                <rect class="cls-3" x="-35" y="23" width="72" height="72"/>
              </g>
            </g>
          </g>
          <g>
            <rect class="cls-3" x="-72.25" y="10.08" width="72.5" height="1.44"/>
            <g class="cls-15">
              <g>
                <rect class="cls-3" x="-35" y="-49" width="72" height="72"/>
                <rect class="cls-3" x="-35" y="-49" width="72" height="72"/>
              </g>
            </g>
          </g>
          <g>
            <rect class="cls-3" x="-72.25" y="60.48" width="72.5" height="1.44"/>
            <g class="cls-18">
              <g>
                <rect class="cls-3" x="-35" y="23" width="72" height="72"/>
                <rect class="cls-3" x="-35" y="23" width="72" height="72"/>
              </g>
            </g>
          </g>
          <g>
            <rect class="cls-3" x="-72.25" y="46.08" width="72.5" height="1.44"/>
            <g class="cls-21">
              <g>
                <rect class="cls-3" x="-35" y="23" width="72" height="72"/>
                <rect class="cls-3" x="-35" y="23" width="72" height="72"/>
              </g>
            </g>
          </g>
          <g>
            <rect class="cls-3" x="-72.25" y="31.68" width="72.5" height="1.44"/>
            <g class="cls-19">
              <g>
                <rect class="cls-3" x="-35" y="23" width="72" height="72"/>
                <rect class="cls-3" x="-35" y="23" width="72" height="72"/>
              </g>
            </g>
          </g>
          <g>
            <rect class="cls-3" x="-72.25" y="17.28" width="72.5" height="1.44"/>
            <g class="cls-20">
              <g>
                <rect class="cls-3" x="-35" y="-49" width="72" height="72"/>
                <rect class="cls-3" x="-35" y="-49" width="72" height="72"/>
              </g>
            </g>
          </g>
          <g>
            <rect class="cls-3" x="-72.25" y="2.88" width="72.5" height="1.44"/>
            <g class="cls-22">
              <g>
                <rect class="cls-3" x="-35" y="-49" width="72" height="72"/>
                <rect class="cls-3" x="-35" y="-49" width="72" height="72"/>
              </g>
            </g>
          </g>
        </g>
      </g>
    </pattern>
  </defs>
  <g id="Layer_1" data-name="Layer 1">
    <rect class="cls-33" width="72" height="72"/>
  </g>
</svg>